<svg width="24" height="25" viewBox="0 0 24 25" fill="none" xmlns="http://www.w3.org/2000/svg">
<g id="1.svg">
<path id="Vector" d="M11.2988 1.25672C11.2883 1.26647 11.0895 1.28522 10.8555 1.29797C8.91225 1.40297 7.074 2.27297 5.763 3.70697C5.64975 3.83072 5.559 3.90122 5.53275 3.88472C5.5065 3.86822 5.49975 3.87422 5.51475 3.89897C5.52825 3.92147 5.4405 4.07372 5.319 4.23797C4.875 4.83722 4.49025 5.52647 4.24875 6.15872C4.18275 6.33122 4.1055 6.53072 4.07775 6.60197C3.606 7.80722 3.57 9.83147 3.9885 11.6075C4.25475 12.7355 4.992 14.5355 5.712 15.8142C5.769 15.9155 5.88075 16.115 5.961 16.2575C6.04125 16.4 6.1155 16.5245 6.12825 16.5342C6.1575 16.5582 6.49125 17.1327 6.504 17.1807C6.50925 17.201 6.54375 17.2512 6.57975 17.2917C6.61575 17.3322 6.8175 17.6232 7.02675 17.9382C7.236 18.2532 7.4715 18.602 7.5495 18.7137C7.75725 19.01 8.1585 19.5672 8.241 19.6737C8.28 19.7247 8.45475 19.9572 8.6295 20.1905C8.95875 20.6307 9.24075 21.0005 9.34725 21.1302C9.381 21.1715 9.55275 21.3882 9.729 21.6117C10.0995 22.0827 10.1843 22.1885 10.5593 22.6505C10.7115 22.838 10.9635 23.1485 11.1188 23.3397C11.6303 23.9705 11.6333 23.969 12.906 22.355C14.3828 20.483 14.7255 20.0412 14.793 19.9235C14.8163 19.8822 14.8508 19.838 14.8688 19.8252C14.8868 19.8125 14.9573 19.724 15.0255 19.628C15.0938 19.532 15.1658 19.4645 15.186 19.4765C15.2063 19.4885 15.2123 19.4817 15.1988 19.4592C15.1733 19.418 15.273 19.253 15.4298 19.0745C15.4778 19.0197 15.5355 18.944 15.5588 18.905C15.582 18.866 15.6668 18.7385 15.7478 18.6215C15.8288 18.5037 15.912 18.38 15.9323 18.347C16.0395 18.1707 16.1445 18.0492 16.1745 18.068C16.1933 18.0792 16.1985 18.0635 16.1865 18.0335C16.1745 18.002 16.203 17.939 16.2518 17.8887C16.299 17.84 16.3425 17.7807 16.3478 17.7575C16.353 17.7342 16.446 17.5782 16.5548 17.411C18.0083 15.1775 18.9915 12.9342 19.368 10.9962C20.2343 6.53672 17.73 2.39897 13.6058 1.47272C12.9975 1.33622 11.373 1.18472 11.298 1.25747L11.2988 1.25672ZM13.0823 2.18972C14.178 2.38847 15.489 2.95772 16.0298 3.46997C16.0575 3.49622 16.1385 3.56147 16.2098 3.61472C16.914 4.14197 17.847 5.44397 18.2033 6.39797C18.249 6.51947 18.3083 6.67322 18.336 6.73847C18.675 7.54472 18.8235 9.11222 18.669 10.2567C18.5445 11.1815 18.2325 12.347 17.9228 13.0497C17.8943 13.1135 17.8718 13.178 17.8718 13.1915C17.8718 13.205 17.8485 13.2695 17.82 13.334C17.2815 14.5392 16.98 15.137 16.4933 15.9612C16.4093 16.1037 16.3275 16.2252 16.3125 16.232C16.2975 16.2387 16.284 16.2582 16.284 16.2755C16.284 16.319 15.801 17.09 15.429 17.6412C15.0645 18.1812 14.9768 18.305 14.4938 18.9702C14.1788 19.4037 14.0798 19.5357 13.9253 19.7292C13.908 19.751 13.821 19.8672 13.7318 19.988C13.3808 20.4642 11.6603 22.6085 11.6205 22.6197C11.604 22.6242 11.4803 22.49 11.3453 22.322C11.2103 22.154 11.0903 22.0077 11.0783 21.9972C11.0535 21.9755 9.9525 20.579 9.57975 20.096C9.43875 19.913 9.30375 19.739 9.27975 19.7082C9 19.3535 8.4285 18.5547 7.986 17.8992C7.8285 17.666 7.68975 17.4665 7.67775 17.456C7.63725 17.4215 7.38675 17.0127 7.40625 17.0127C7.41675 17.0127 7.39275 16.9775 7.353 16.9347C7.101 16.664 6.01125 14.6967 5.60625 13.7825C5.55225 13.661 5.4825 13.5027 5.451 13.4315C5.35875 13.223 5.0175 12.2847 4.9605 12.0837C4.932 11.9825 4.8735 11.7747 4.8315 11.6225C3.5805 7.08422 5.8905 3.02372 10.2098 2.16872C10.8263 2.04647 12.3548 2.05772 13.0823 2.18972ZM11.2245 4.29647C11.1735 4.30547 11.0078 4.33172 10.8555 4.35497C9.60825 4.54697 8.2875 5.42072 7.6965 6.44447C7.65825 6.51047 7.614 6.56447 7.59825 6.56447C7.5825 6.56447 7.569 6.58397 7.569 6.60722C7.569 6.63047 7.512 6.76772 7.443 6.91172C6.8925 8.05472 6.83325 9.43322 7.2855 10.5702C7.38825 10.829 7.57725 11.2265 7.6095 11.2535C7.62225 11.264 7.659 11.324 7.692 11.3885C7.8285 11.654 8.38725 12.2877 8.67675 12.5045C8.748 12.5577 8.83425 12.6267 8.86875 12.6575C10.0133 13.6857 12.36 13.82 13.9013 12.9455C14.8635 12.3995 15.4418 11.711 15.99 10.46C16.1715 10.0452 16.278 9.11372 16.2165 8.47847C16.1295 7.57772 15.861 6.88772 15.306 6.14147C14.3873 4.90472 12.5355 4.06772 11.2245 4.29647ZM12.558 5.21972C16.3163 6.22547 16.3793 11.5017 12.6458 12.5997C8.88375 13.7067 6.141 8.90222 8.9775 6.17447C9.23625 5.92547 9.6585 5.60447 9.7275 5.60447C9.7455 5.60447 9.786 5.58272 9.81825 5.55572C10.2893 5.16197 11.6955 4.98947 12.558 5.21972Z" fill="#829984"/>
</g>
</svg>
