<svg width="21" height="22" viewBox="0 0 21 22" fill="none" xmlns="http://www.w3.org/2000/svg">
<g id="2.svg">
<path id="Vector" d="M1.64721 4.72434C1.42671 4.76765 1.21278 4.99012 1.14453 5.24737C1.10646 5.39174 1.0999 16.7271 1.13796 16.8925C1.19178 17.1255 1.31515 17.2889 1.51465 17.39L1.64 17.4536L19.4152 17.4543L19.5103 17.4096C19.6987 17.3211 19.8083 17.1951 19.9047 16.9555C19.9474 16.8499 19.9376 5.32152 19.8949 5.19749C19.824 4.99143 19.6915 4.84443 19.4893 4.74665C19.4198 4.71318 1.81784 4.69087 1.64721 4.72434ZM18.6218 5.45409C18.6218 5.4659 18.6146 5.47574 18.606 5.47574C18.5975 5.47574 18.4925 5.56959 18.3731 5.68443C18.2536 5.79927 18.0371 6.00402 17.8914 6.13987C17.6374 6.37677 16.5867 7.36443 16.2757 7.65974C15.9771 7.94259 15.6509 8.25102 15.4829 8.40918C15.3884 8.49777 15.229 8.64806 15.1286 8.74256C15.0282 8.83706 14.8739 8.98274 14.786 9.06543C14.6364 9.20587 14.3601 9.46706 14.0044 9.80371C13.9217 9.88181 13.7629 10.0321 13.6507 10.1377C13.5385 10.2434 13.2832 10.4842 13.083 10.6732C12.8829 10.8622 12.6624 11.0696 12.5922 11.1339C12.5219 11.1982 12.3533 11.3577 12.2174 11.4876C12.0816 11.6176 11.9169 11.7725 11.8526 11.8302C11.7882 11.8886 11.6242 12.0428 11.4883 12.1728C11.3525 12.3027 11.1786 12.4668 11.1031 12.537C11.0277 12.6072 10.9272 12.7017 10.88 12.747C10.6825 12.938 10.4324 12.9747 10.2743 12.8356C10.1758 12.7496 9.38375 12.0035 9.21575 11.8394C9.17375 11.7981 9.08646 11.7167 9.0215 11.6589C8.95653 11.6012 8.79312 11.4463 8.65662 11.3164C8.52078 11.1858 8.35212 11.0263 8.2819 10.962C8.21168 10.8977 7.99512 10.6942 7.80087 10.5105C7.60662 10.3267 7.17743 9.92184 6.84734 9.61143C6.51725 9.30102 6.17993 8.98274 6.09725 8.90465C5.64903 8.48006 5.26118 8.11387 4.96128 7.83234C4.84315 7.72143 4.67975 7.56721 4.59706 7.48912C4.51437 7.41102 4.27353 7.18396 4.06156 6.98446C3.84959 6.78496 3.4204 6.38071 3.10803 6.0854C2.79565 5.79009 2.5115 5.52299 2.47606 5.49084L2.41175 5.43309H10.5171C15.9062 5.43309 18.6224 5.44031 18.6224 5.45474L18.6218 5.45409ZM2.16434 6.19565C2.58237 6.59006 3.19793 7.17018 4.0609 7.98196C4.57934 8.47021 5.08071 8.94271 5.17521 9.03327C5.26971 9.12384 5.44296 9.2879 5.56109 9.39815C5.67921 9.50906 5.84262 9.66327 5.92531 9.74137C6.39256 10.183 6.5179 10.3018 6.87884 10.6398C7.09671 10.8445 7.36053 11.0939 7.46487 11.1943L7.65453 11.3774L7.56134 11.464C7.46881 11.55 7.3789 11.6281 7.02912 11.9267C6.73709 12.1761 6.59993 12.2935 6.48312 12.3966C6.42275 12.4497 6.25803 12.5908 6.11759 12.7102C5.97715 12.8297 5.8354 12.9517 5.8039 12.9819C5.77175 13.0115 5.72778 13.0489 5.70481 13.0646C5.68184 13.0804 5.59784 13.1526 5.51646 13.2247C5.43509 13.2969 5.2579 13.4511 5.12271 13.5673C4.98753 13.6835 4.85234 13.799 4.82281 13.8246C4.47828 14.1225 4.2394 14.3272 4.04056 14.4966C3.90865 14.6088 3.70062 14.7873 3.5779 14.8936C3.45518 14.9999 3.14281 15.2696 2.88359 15.4927C2.62437 15.7159 2.40715 15.9036 2.40125 15.9101C2.39534 15.9167 2.33759 15.9652 2.27262 16.0184C2.20765 16.0716 2.12103 16.1451 2.07968 16.1818C2.03834 16.2186 1.97337 16.275 1.93531 16.3071L1.86575 16.3649V5.9174L1.93531 5.9804C1.97337 6.01518 2.07706 6.11165 2.16565 6.19499L2.16434 6.19565ZM19.1999 11.1438C19.1999 14.0136 19.1947 16.3616 19.1888 16.3616C19.1829 16.3616 19.0595 16.2579 18.9151 16.1313C18.7707 16.0046 18.5995 15.8563 18.5352 15.8018C18.4282 15.7113 17.77 15.1462 16.7679 14.2859C16.5559 14.1035 16.3426 13.9204 16.2954 13.8777C16.2481 13.8351 16.1228 13.7287 16.0184 13.6401C15.9141 13.5516 15.7789 13.4361 15.7185 13.3829C15.5965 13.2766 15.5479 13.2346 15.3432 13.0613C15.2664 12.9964 15.1988 12.9386 15.1929 12.9321C15.187 12.9255 15.1194 12.8677 15.0426 12.8034C14.9658 12.7391 14.8982 12.6814 14.8923 12.6748C14.8779 12.6597 14.4434 12.2843 14.3817 12.2338C14.3542 12.2115 14.3017 12.1656 14.2636 12.1314C14.2256 12.0973 14.137 12.0205 14.0654 11.9601C13.9939 11.8998 13.8128 11.7442 13.6625 11.615L13.3895 11.3794L13.5135 11.2612C13.5818 11.1963 13.8981 10.8983 14.2164 10.5991C14.5347 10.2998 14.8575 9.99534 14.9343 9.92315C15.0111 9.85096 15.1745 9.69609 15.2985 9.57927C15.9075 9.00637 16.1877 8.74124 16.4233 8.51746C16.5887 8.35996 17.2391 7.74834 17.5705 7.43727C17.6597 7.35393 17.896 7.13081 18.0955 6.94181C18.295 6.75281 18.5155 6.54543 18.5857 6.48112C18.6559 6.41681 18.8147 6.26587 18.9394 6.14512C19.0641 6.02437 19.1737 5.92593 19.1822 5.92527C19.1907 5.92462 19.198 8.27268 19.198 11.1425L19.1999 11.1438ZM8.57131 12.2351C8.64809 12.3066 8.8069 12.4569 8.92503 12.5685C9.85559 13.4498 9.83459 13.4315 10.0085 13.5266C10.08 13.566 10.168 13.5955 10.3386 13.6388C10.6411 13.7156 11.0519 13.5791 11.3459 13.3041C11.4286 13.2267 11.7968 12.8802 12.1649 12.5337C12.5331 12.1872 12.8461 11.9037 12.8612 11.9037C12.8763 11.9037 12.9577 11.9641 13.041 12.0376C13.1244 12.1111 13.2779 12.2436 13.3823 12.3322C13.486 12.4208 13.6212 12.5363 13.6822 12.5895C13.7432 12.6426 13.8784 12.7581 13.9827 12.8467C14.0871 12.9353 14.2164 13.0469 14.2702 13.0955C14.324 13.144 14.3955 13.2064 14.4297 13.2346C14.5117 13.3028 14.8405 13.5844 14.9363 13.669C14.9776 13.7058 15.0741 13.7885 15.1509 13.8534C15.2277 13.9184 15.2939 13.9755 15.3005 13.9821C15.3064 13.988 15.374 14.0464 15.4501 14.1113C15.6641 14.2925 15.7087 14.3305 15.794 14.406C15.8373 14.4441 16.1287 14.6947 16.4411 14.9632C16.7534 15.2316 17.346 15.7401 17.7575 16.0939L18.5056 16.737L14.5255 16.7422C12.3362 16.7455 8.74653 16.7455 6.54743 16.7422L2.54956 16.737L2.7904 16.5296C2.92296 16.4154 3.12312 16.2435 3.23468 16.1477C3.34625 16.0519 3.4624 15.9515 3.49193 15.9259C3.52146 15.9003 3.74787 15.706 3.99528 15.4941C4.24268 15.2821 4.45006 15.1036 4.45596 15.0977C4.46187 15.0918 4.52946 15.0334 4.60625 14.9691C4.68303 14.9041 4.75062 14.8463 4.75653 14.8398C4.76243 14.8332 4.83003 14.7755 4.90681 14.7111C4.98359 14.6468 5.05118 14.5884 5.05709 14.5819C5.0689 14.5687 5.55256 14.1533 5.6359 14.0844C5.66543 14.0601 5.73368 14.0011 5.78684 13.9525C5.84 13.904 5.97584 13.7878 6.08675 13.694C6.19831 13.6001 6.29412 13.5174 6.30003 13.5115C6.30593 13.5056 6.37353 13.4472 6.45031 13.3829C6.52709 13.3186 6.6334 13.2274 6.68721 13.1801C6.74103 13.1329 6.87031 13.022 6.97531 12.9334C7.08031 12.8448 7.22468 12.7194 7.29687 12.6551C7.44715 12.5206 7.89537 12.1354 8.07584 11.9871L8.19725 11.8873L8.31537 11.9962C8.38034 12.056 8.49584 12.1642 8.57262 12.2358L8.57131 12.2351Z" fill="#829984"/>
</g>
</svg>
