<svg width="19" height="20" viewBox="0 0 19 20" fill="none" xmlns="http://www.w3.org/2000/svg">
<g id="3.svg" clip-path="url(#clip0_1_46)">
<path id="Vector" d="M2.13452 2.25605C1.80796 3.14074 1.62686 3.94468 1.52533 4.95643C1.48258 5.38333 1.49505 6.32502 1.54671 6.56074C1.55799 6.6118 1.55739 6.6124 1.44399 6.74243C0.281426 8.07421 -0.13123 9.53543 0.0587697 11.6492C0.408488 15.5394 2.61546 17.7066 6.63396 18.1044C6.94211 18.1347 11.9599 18.1401 12.3001 18.1104C16.2788 17.7618 18.5493 15.6148 18.94 11.8309C19.1668 9.63577 18.7655 8.11993 17.6023 6.77746L17.4634 6.61715L17.4871 6.43961C17.5168 6.21696 17.5216 5.38333 17.4942 5.05321C17.4123 4.05868 17.1724 2.98755 16.8441 2.14858L16.8061 2.05121L16.7556 2.05536C15.8365 2.13196 13.7429 3.07543 12.2888 4.06758L12.1089 4.19049L11.9706 4.15783C10.7546 3.87283 8.12843 3.87936 6.98664 4.17089L6.91064 4.19049L6.61674 3.99633C5.13593 3.01843 3.57021 2.30474 2.42368 2.08386C2.3453 2.06902 2.26514 2.05358 2.24674 2.05002C2.21349 2.04349 2.21111 2.04883 2.13452 2.25605ZM3.24246 3.18527C4.27083 3.55636 5.33305 4.12161 6.48018 4.90714C6.62386 5.00571 6.75271 5.08646 6.76636 5.08646C6.78002 5.08646 6.87858 5.06271 6.98546 5.03361C8.22818 4.69814 10.7445 4.69161 11.9819 5.02055C12.1143 5.05558 12.2318 5.08646 12.2431 5.08883C12.2544 5.09121 12.4153 4.99027 12.6006 4.86439C13.8445 4.01889 14.994 3.43049 16.0841 3.08077L16.2646 3.02258L16.2877 3.09621C16.6452 4.24214 16.7806 5.69683 16.6137 6.6023L16.5656 6.86415L16.6036 6.90927C16.6244 6.93421 16.7336 7.05593 16.8459 7.18061C17.958 8.41205 18.3065 9.62805 18.1224 11.6397C18.0215 12.7476 17.7323 13.738 17.2811 14.5223C17.2039 14.6565 16.9777 15.0033 16.967 15.0033C16.964 15.0033 16.9848 14.9344 17.0133 14.8507C17.2876 14.0372 17.3624 12.8901 17.1938 12.0921C16.9272 10.8298 16.0301 9.73018 14.9156 9.3003C14.3747 9.0913 13.816 9.00699 12.9764 9.00699C12.4925 9.00699 12.3512 9.01293 11.495 9.07111C10.5486 9.13524 10.4334 9.14118 9.97855 9.15602C9.31355 9.1768 8.78214 9.15958 7.62196 9.07764C5.6228 8.93693 4.80461 8.99808 3.97871 9.35136C2.97824 9.77886 2.14164 10.8049 1.85427 11.9556C1.64171 12.807 1.70702 13.9535 2.02171 14.8869C2.07336 15.0401 2.06624 15.0365 1.94036 14.8471C1.25161 13.8104 0.916738 12.6128 0.857363 10.9765C0.797395 9.32999 1.17561 8.27193 2.24139 7.10402C2.39102 6.94014 2.45693 6.8588 2.45218 6.84396C2.24971 6.17718 2.30493 4.80502 2.58102 3.64958C2.62496 3.46493 2.73896 3.05168 2.75024 3.03268C2.75796 3.02021 2.95152 3.08018 3.24364 3.18586L3.24246 3.18527ZM6.77705 9.85724C6.90589 9.86436 7.30608 9.89049 7.66708 9.91483C9.34086 10.0282 9.73274 10.0271 11.5401 9.90236C12.3518 9.84655 12.5127 9.83943 12.9633 9.83943C14.4097 9.84002 15.1555 10.1494 15.8133 11.0234C16.4201 11.8291 16.5995 12.8646 16.3477 14.1097C15.9089 16.2816 14.2049 17.1948 10.3906 17.3029C4.79808 17.4608 2.69264 16.3469 2.56618 13.1638C2.52936 12.2435 2.80427 11.4532 3.38852 10.7989C4.10814 9.99321 4.96789 9.75452 6.77764 9.85724H6.77705ZM6.07999 11.4538C5.06468 11.6403 4.55227 13.1894 5.12227 14.3496C5.83774 15.8054 7.48658 15.1755 7.57149 13.4138C7.62552 12.2833 6.88274 11.3066 6.07999 11.4538ZM12.6059 11.4616C11.4255 11.7038 11.0253 13.7849 11.9688 14.7735C12.844 15.6902 14.0843 14.8869 14.1229 13.3782C14.1526 12.2097 13.4271 11.2929 12.6059 11.4616ZM6.30977 12.2976C6.85364 12.5446 6.8768 13.9511 6.34302 14.2896C6.0503 14.4754 5.68989 13.8556 5.72196 13.2232C5.75046 12.6645 6.05624 12.183 6.30977 12.2976ZM12.9034 12.3183C13.4116 12.6449 13.4211 13.9464 12.9176 14.2801C12.5608 14.5158 12.1695 13.6923 12.3061 12.9922C12.4028 12.4947 12.6843 12.177 12.9034 12.3183Z" fill="#829984"/>
</g>
<defs>
<clipPath id="clip0_1_46">
<rect width="19" height="19" fill="white" transform="translate(0 0.589966)"/>
</clipPath>
</defs>
</svg>
