<svg width="21" height="22" viewBox="0 0 21 22" fill="none" xmlns="http://www.w3.org/2000/svg">
<g id="4.svg">
<path id="Vector" d="M18.48 3.09486C18.4222 3.10536 18.3087 3.13424 18.228 3.15852C17.8342 3.27599 1.86505 10.1482 1.7082 10.2677C1.01783 10.794 1.13202 11.7324 1.93592 12.1426C2.02911 12.1905 2.95836 12.5212 3.99983 12.8782C5.0413 13.2352 5.9023 13.5351 5.91214 13.545C5.92198 13.5548 6.23961 14.5897 6.61827 15.8445C7.51208 18.8088 7.59148 18.9938 8.01411 19.1113C8.50498 19.2478 8.61852 19.1782 9.96842 17.9215L11.1175 16.8518L12.9859 18.3081C15.0156 19.8896 14.9776 19.8653 15.498 19.8975C16.107 19.9349 16.5979 19.6632 16.859 19.1428C17.0349 18.7924 19.7525 4.56421 19.7288 4.11927C19.6908 3.41577 19.1487 2.97149 18.48 3.09618V3.09486ZM18.8475 4.18096C18.8691 4.51827 16.105 18.7287 15.9941 18.8488C15.6384 19.2353 15.6128 19.2216 13.415 17.5068C12.3775 16.697 11.1641 15.7605 10.7198 15.4258C10.2755 15.0911 9.91198 14.8056 9.91264 14.7912C9.9133 14.7768 11.4627 12.9432 13.3566 10.7159L16.7993 6.66683V6.46865C16.7993 6.19696 16.6563 6.0493 16.3944 6.0493C16.2212 6.0493 15.9285 6.23765 11.2343 9.3673C8.49711 11.1923 6.24158 12.6853 6.22189 12.6853C5.84389 12.6853 2.18005 11.2803 2.14986 11.1234C2.12492 10.9941 3.39476 10.439 16.6943 4.76108C18.7418 3.88696 18.8271 3.86399 18.8468 4.1803L18.8475 4.18096ZM11.3807 11.6596C9.99073 13.2943 8.84623 14.6521 8.83639 14.677C8.82655 14.702 8.66773 15.4015 8.48333 16.2317C8.29892 17.0618 8.14273 17.745 8.13683 17.7502C8.13092 17.7555 7.8297 16.7744 7.4668 15.5702C6.98773 13.9794 6.82105 13.3717 6.8578 13.3501C6.88536 13.3337 8.47677 12.2725 10.3943 10.9928C12.3119 9.71315 13.8862 8.67036 13.8935 8.67693C13.9007 8.68349 12.77 10.0255 11.38 11.6602L11.3807 11.6596ZM9.95727 15.9646C10.1751 16.1273 10.353 16.2802 10.353 16.3032C10.353 16.3393 9.1468 17.4812 9.12973 17.4608C9.11267 17.4405 9.51561 15.6686 9.53661 15.6686C9.55039 15.6686 9.73939 15.8018 9.95727 15.9652V15.9646Z" fill="#829984"/>
</g>
</svg>
