<svg width="14" height="15" viewBox="0 0 14 15" fill="none" xmlns="http://www.w3.org/2000/svg">
<g id="6.svg" clip-path="url(#clip0_1_70)">
<path id="Vector" d="M6.24621 0.850205C4.38115 1.02652 2.86346 1.81927 1.75046 3.19827C-0.816792 6.37889 0.226208 11.0951 3.89683 12.9042C7.60421 14.7312 12.0562 12.5188 12.887 8.43646C13.6216 4.82621 11.0688 1.31702 7.38896 0.87908C7.19602 0.85633 6.39715 0.835767 6.24621 0.850205ZM6.96808 2.37183C8.74783 2.44008 10.4764 3.69789 11.1471 5.41245C12.5777 9.06908 9.3109 12.8215 5.50946 11.887C3.51621 11.397 1.97665 9.56739 1.86465 7.55533C1.8594 7.46345 1.85196 7.34008 1.84802 7.28058C1.77846 6.23714 2.26583 4.91239 3.05202 4.00808C3.94977 2.97558 5.49721 2.27602 6.69771 2.36002C6.72833 2.3622 6.84952 2.36745 6.96765 2.37227L6.96808 2.37183Z" fill="#829984"/>
</g>
<defs>
<clipPath id="clip0_1_70">
<rect width="13.125" height="14" fill="white" transform="translate(0 0.190002)"/>
</clipPath>
</defs>
</svg>
