<svg width="122" height="46" viewBox="0 0 122 46" fill="none" xmlns="http://www.w3.org/2000/svg">
<g id="rss.svg" clip-path="url(#clip0_1_158)">
<path id="Vector" d="M69.1285 2.50854C65.665 3.31304 63.945 5.13804 63.928 8.02654C63.9085 11.39 65.7925 12.9345 71.834 14.5095C74.7705 15.2745 75.7685 16.6005 74.3795 17.8885C72.803 19.3495 69.718 18.402 69.3295 16.336C69.137 15.305 69.1465 15.308 65.911 15.488L63.0435 15.647L63.1815 16.55C63.394 17.942 64.5425 20.091 65.5215 20.929C68.4225 23.411 76.4115 23.1565 79.1465 20.493L79.9465 19.714L80.1 20.6195C80.6625 23.951 84.046 27.081 87.9385 27.8715L89.1885 28.126L88.45 29.0935C86.013 32.2855 85.944 38.8135 88.312 42.204C91.936 47.3915 102.134 47.241 105.49 41.951L106.114 40.9665V45.662H121.919V40.6135H112.48V25.9055H106.114L106.102 28.1555C106.091 29.9935 106.041 30.327 105.828 29.9765C104.618 27.9925 102.263 26.344 99.9535 25.8675L98.709 25.61L99.972 24.661C103.901 21.708 106.348 16.3205 105.72 12.0075C104.067 0.673041 87.7405 0.497542 81.522 11.746C81.121 12.47 80.7795 13.086 80.7625 13.1145C80.7455 13.143 80.186 12.6365 79.518 11.991C78.133 10.6495 77.0205 10.1585 73.239 9.22204C69.7205 8.35004 69.0005 7.73854 70.183 6.62604C71.308 5.56854 73.7575 6.25354 74.309 7.78054C74.6325 8.67504 74.5735 8.66654 78.314 8.41904L80.477 8.27554L80.339 7.41354C79.7005 3.42004 74.6745 1.22054 69.127 2.51004L69.1285 2.50854ZM1.84753 12.514V22.3915H8.21353V14.4885H8.86053C9.88153 14.4885 10.499 15.2395 12.4675 18.879L14.3085 22.2805L17.848 22.341C19.7945 22.3745 21.386 22.3425 21.386 22.2705C21.386 21.158 17.419 14.7385 16.318 14.0695L15.7145 13.7025L16.9325 13.0655C21.448 10.7015 20.593 3.92904 15.6445 2.86754C15.02 2.73404 11.8575 2.63404 8.20253 2.63404H1.84753V12.5115V12.514ZM98.2305 4.35604C108.166 6.94904 107.256 20.888 96.8185 25.977C86.1845 31.162 76.7075 22.65 81.762 12.4545C84.711 6.50604 92.254 2.79654 98.229 4.35754L98.2305 4.35604ZM12.6 7.08854C14.836 8.21904 13.3525 10.306 10.1855 10.486L8.21403 10.5985V6.80604L10.135 6.80904C11.2345 6.81054 12.288 6.93004 12.6 7.08754V7.08854ZM94.7165 8.83504C92.9685 9.29904 91.191 11.0655 91.1895 12.3395C91.1865 14.421 92.8505 15.1715 95.4685 14.2705C97.07 13.7195 97.478 13.7195 97.7745 14.272C98.2765 15.2115 96.631 16.169 95.671 15.4955C95.1885 15.158 93.4095 16.2225 93.3915 16.8595C93.3635 17.8185 95.7905 18.1815 97.277 17.4405C101.998 15.088 100.658 10.038 95.761 11.727C93.8035 12.402 93.383 12.4315 93.383 11.8885C93.383 11.0365 94.7145 10.4205 95.2955 11.001C95.533 11.2385 97.333 10.045 97.333 9.64954C97.333 9.05904 95.7385 8.56104 94.7145 8.83404L94.7165 8.83504ZM87.6305 13.5715C86.583 14.3295 86.5335 14.1325 88.4545 16.8595C89.637 18.537 90.0915 19.3655 90.0465 19.758C89.968 20.429 89.2155 20.6075 88.6865 20.08C88.3505 19.744 88.263 19.7705 87.4675 20.4525C85.458 22.174 88.5125 23.6515 90.782 22.057C93.2755 20.305 93.2795 19.218 90.8005 15.598C88.878 12.7895 88.7895 12.7335 87.6295 13.573L87.6305 13.5715ZM7.05203 25.6905C3.46053 26.257 1.35803 28.357 1.33003 31.4055C1.30203 34.516 3.31853 36.288 8.31353 37.538C11.375 38.3045 12.383 38.8895 12.383 39.8975C12.383 42.7365 7.30103 42.4525 6.76353 39.584C6.57503 38.583 6.59903 38.5885 3.35753 38.764L0.483032 38.92L0.626532 39.82C1.28203 43.946 3.68103 45.663 9.02603 45.8305C13.2645 45.9625 14.7215 45.552 16.572 43.7015L17.839 42.4345L18.3045 43.063C20.9975 46.705 30.0945 46.95 33.0815 43.4595C33.955 42.44 34.935 40.519 35.035 39.6345C35.1055 39.0115 35.0855 39.0005 32.4235 38.193L29.742 37.379L29.382 38.462C28.1555 42.1535 23.525 42.1955 22.508 38.5255C22.162 37.278 22.204 34.2985 22.5865 33.0145C23.509 29.911 27.4055 29.274 28.9865 31.9695C29.646 33.0945 29.469 33.0735 32.4615 32.397C35.3105 31.753 35.188 31.867 34.5385 30.4675C31.962 24.924 23.301 23.6235 18.7085 28.088L17.4275 29.334L16.896 28.427C15.5715 26.1655 11.3935 25.004 7.05503 25.6905H7.05203ZM67.701 25.696C65.2695 26.118 62.8675 27.648 61.5105 29.6375C61.1475 30.1705 61.138 30.127 61.1265 28.044L61.115 25.9035H54.749V32.7085H48.383V25.9035H42.017V45.66H48.383V37.757H54.749V45.66H61.115V41.1935L61.8025 42.23C64.663 46.547 73.5095 47.305 77.5355 43.577C82.1945 39.264 81.2805 29.4525 75.9675 26.7415C73.917 25.695 70.3185 25.2395 67.7 25.694L67.701 25.696ZM10.6215 29.7435C10.9885 29.9335 11.419 30.448 11.6525 30.977L12.0535 31.8855L16.3425 31.679L16.202 32.7985C16.0165 34.2795 15.9335 34.3355 14.703 33.7915C14.1235 33.5355 12.502 33.039 11.0975 32.686C7.77453 31.8535 7.36103 31.675 7.19103 30.9985C6.87603 29.747 9.07403 28.9425 10.6235 29.744L10.6215 29.7435ZM71.4655 30.5195C74.7165 31.4225 75.375 38.884 72.36 40.6585C70.1085 41.983 67.2595 40.8555 66.5915 38.3735C65.264 33.442 67.7235 29.4805 71.4655 30.5195ZM98.0055 30.514C101.783 31.563 101.706 40.051 97.91 41.0735C94.8585 41.8945 92.828 39.774 92.8435 35.783C92.8605 31.636 94.825 29.6305 98.006 30.515L98.0055 30.514Z" fill="white"/>
</g>
<defs>
<clipPath id="clip0_1_158">
<rect width="121" height="45" fill="white" transform="translate(0.530029 0.880005)"/>
</clipPath>
</defs>
</svg>
